<svg width="128" height="128" viewBox="0 0 128 128" fill="none" xmlns="http://www.w3.org/2000/svg">
<g clip-path="url(#clip0_1_15)">
<path fill-rule="evenodd" clip-rule="evenodd" d="M79.7905 106.095L79.7877 106.094C74.4381 108.569 68.5807 109.75 62.6899 109.539C58.3086 109.39 53.987 108.476 49.9195 106.841L37.5141 69.706L46.1091 53.0599H77.8043C77.8043 53.0599 79.7916 106.096 79.7905 106.095Z" fill="#FF9100"/>
<path d="M63.1214 95.6226C52.1369 85.4644 45.4718 70.7601 46.036 54.6316C46.0546 54.109 46.0827 53.5842 46.1142 53.0616C44.1079 52.5414 42.0509 52.2415 39.9796 52.1672C37.0361 52.0632 34.0943 52.4165 31.2591 53.2146C28.233 58.5096 26.5432 64.4624 26.3361 70.5576C25.7669 86.8499 35.6258 101.084 49.9195 106.841C55.3771 104.561 59.9908 100.641 63.1214 95.6226Z" fill="#FFC400"/>
<path d="M65.9913 14.8881C58.7963 20.6537 53.1117 28.2537 49.6754 37.0112C47.6615 42.1441 46.4583 47.5589 46.1091 53.0616C58.744 56.3213 67.8728 68.0022 67.3975 81.5837C67.2284 86.5595 65.7507 91.4027 63.1135 95.6254C67.9723 100.123 73.6282 103.674 79.7905 106.095C92.2881 100.319 101.154 87.8899 101.667 73.1879C101.999 63.6614 98.3395 55.1721 93.1696 48.0059C87.7083 40.429 65.9913 14.8881 65.9913 14.8881Z" fill="#DD2C00"/>
</g>
<defs>
<clipPath id="clip0_1_15">
<rect width="108" height="108" fill="white" transform="translate(10 10)"/>
</clipPath>
</defs>
</svg>
